<?xml version="1.0" standalone="no"?>
<!DOCTYPE svg PUBLIC "-//W3C//DTD SVG 20010904//EN"
 "http://www.w3.org/TR/2001/REC-SVG-20010904/DTD/svg10.dtd">
<svg version="1.0" xmlns="http://www.w3.org/2000/svg"
 width="300.000000pt" height="119.000000pt" viewBox="0 0 300.000000 119.000000"
 preserveAspectRatio="xMidYMid meet">
<metadata>
Created by potrace 1.10, written by Peter Selinger 2001-2011
</metadata>
<g transform="translate(0.000000,119.000000) scale(0.100000,-0.100000)"
fill="#143d7d" stroke="none">
<path d="M784 1177 c-21 -10 -19 -13 30 -43 28 -18 51 -36 51 -41 1 -4 9 -23
18 -41 20 -37 17 -46 -27 -73 -17 -10 -26 -19 -21 -19 23 0 75 41 75 59 0 10
-9 30 -21 45 -29 37 -6 33 25 -5 31 -37 32 -50 6 -74 -25 -23 -119 -45 -148
-34 -12 5 -22 5 -22 0 0 -4 -63 -9 -140 -10 -97 -2 -151 -7 -175 -17 -47 -19
-110 -77 -125 -115 -12 -29 -16 -30 -54 -25 -23 3 -75 8 -116 12 -64 4 -80 2
-107 -15 -32 -20 -33 -22 -33 -94 0 -80 8 -95 64 -116 21 -9 47 -8 106 3 42 8
81 16 86 17 29 5 46 -5 63 -38 25 -50 66 -86 119 -107 58 -22 265 -22 287 1
23 23 18 60 -14 95 -27 30 -33 32 -117 38 -127 8 -154 28 -154 112 1 79 9 83
218 96 l112 7 0 -140 c0 -216 10 -225 245 -223 175 1 205 9 234 65 l20 38 1
-37 c0 -65 9 -68 216 -68 206 0 229 6 264 63 l20 32 0 -31 c0 -45 28 -66 81
-62 38 3 46 7 58 33 l15 30 29 -27 29 -28 173 0 c160 0 174 2 199 21 15 12 33
35 41 53 11 25 14 27 14 10 1 -12 6 -35 12 -53 10 -29 14 -31 58 -31 26 0 52
5 59 12 8 8 12 53 12 135 0 68 1 123 3 123 1 0 34 -29 72 -65 39 -36 76 -65
83 -65 7 0 43 29 80 64 l67 65 6 -57 c4 -31 7 -89 8 -129 1 -61 4 -74 20 -83
28 -14 63 -12 89 6 22 15 22 19 22 243 0 163 -3 230 -12 239 -7 7 -34 12 -60
12 -47 0 -51 -3 -129 -77 -44 -43 -86 -79 -93 -81 -6 -1 -47 34 -90 78 l-79
80 -53 0 c-48 0 -53 -2 -65 -28 l-12 -28 -27 27 c-17 18 -42 30 -71 34 -24 3
-247 5 -496 3 -438 -3 -452 -4 -480 -24 -15 -11 -35 -35 -44 -52 l-17 -32 -7
37 c-10 53 -21 63 -74 63 -44 0 -47 2 -62 38 -16 39 -76 94 -139 128 -19 10
-37 22 -40 25 -14 17 -115 60 -135 58 -5 -1 -20 -6 -31 -12z m232 -118 c102
-68 125 -126 65 -168 -64 -45 -187 -66 -436 -76 -117 -5 -166 -10 -183 -21
-33 -22 -55 -80 -49 -127 10 -77 80 -117 202 -117 46 0 60 -4 80 -25 14 -13
25 -33 25 -45 0 -19 -6 -20 -128 -20 -113 0 -133 3 -172 23 -47 23 -88 73 -97
120 -4 19 -11 26 -22 23 -66 -17 -205 -37 -226 -32 -44 11 -65 41 -65 91 0 50
21 80 66 91 23 6 124 -5 215 -23 23 -4 27 -1 32 25 8 39 51 88 99 113 34 18
68 22 238 28 180 7 202 10 246 32 41 20 49 29 52 56 4 37 -36 87 -103 130 -25
15 -45 32 -45 36 0 11 114 -52 206 -114z m224 -342 l0 -199 -29 -29 -29 -29
-162 0 c-167 0 -210 9 -224 45 -3 9 -6 77 -6 151 l0 134 48 0 47 0 -3 -103
c-3 -78 0 -106 10 -114 20 -17 223 -20 242 -4 13 11 16 41 16 180 l0 166 45 0
45 0 0 -198z m1381 107 l89 -89 93 93 c87 87 95 92 135 92 l42 0 0 -230 0
-230 -45 0 -45 0 0 163 0 162 -92 -93 -92 -93 -90 90 -91 91 3 -160 3 -160
-46 0 -45 0 0 228 0 227 46 -1 c44 -1 50 -5 135 -90z m-256 61 c14 -13 25 -33
25 -43 0 -11 3 -35 6 -53 l7 -34 -24 21 c-47 42 -61 44 -278 44 l-211 0 0
-180 0 -180 -45 0 -45 0 0 180 0 180 -193 0 c-204 0 -217 -3 -217 -47 0 -35
30 -43 162 -43 98 0 128 -3 147 -16 68 -48 66 -193 -2 -234 -29 -18 -51 -20
-214 -20 l-183 0 0 45 0 45 159 0 c141 0 161 2 182 19 21 16 22 22 11 45 -11
26 -13 26 -119 26 -137 0 -177 7 -208 36 -22 21 -25 31 -25 99 0 71 2 79 29
106 l29 29 492 0 491 0 24 -25z m-1247 -152 l-3 -148 -98 -3 c-72 -2 -98 1
-102 10 -6 19 -11 217 -5 215 30 -5 164 39 181 59 25 30 29 9 27 -133z m644
40 c2 -10 1 -34 -2 -53 -5 -34 -6 -34 -18 -13 -23 42 -62 53 -181 53 -60 0
-116 3 -125 6 -44 17 0 24 153 24 152 0 169 -2 173 -17z m508 -88 l0 -105
-110 0 c-98 0 -110 2 -111 18 -1 9 -2 56 -3 105 l-1 87 112 0 113 0 0 -105z
m-250 -4 c0 -131 0 -131 139 -131 70 0 111 4 119 12 8 8 12 48 12 115 0 57 4
103 9 103 5 0 26 -15 45 -34 l36 -33 0 -96 c0 -87 -2 -99 -24 -124 l-24 -28
-159 -3 c-233 -5 -243 3 -243 198 l0 120 45 0 45 0 0 -99z m390 44 c0 -8 -2
-15 -4 -15 -2 0 -6 7 -10 15 -3 8 -1 15 4 15 6 0 10 -7 10 -15z m-1066 -96
c32 -15 66 -19 159 -19 64 0 117 -4 117 -9 0 -5 -71 -11 -158 -13 -116 -2
-163 -7 -175 -17 -16 -12 -17 -7 -17 65 l0 79 17 -34 c11 -22 31 -40 57 -52z"/>
<path d="M750 1145 c8 -11 30 -34 48 -51 42 -42 43 -79 2 -102 -35 -20 -40
-36 -7 -27 96 29 92 97 -10 166 -29 20 -42 25 -33 14z"/>
<path d="M82 377 c-17 -18 -22 -36 -22 -74 0 -44 4 -55 26 -72 17 -13 41 -21
65 -21 22 0 47 -5 57 -11 13 -8 27 -6 62 13 l45 23 3 65 c4 89 -9 100 -127
100 -79 0 -90 -2 -109 -23z m207 -21 c7 -8 11 -34 9 -58 -3 -39 -6 -43 -30
-46 -17 -2 -28 -9 -28 -19 0 -14 -3 -14 -25 1 -14 9 -45 16 -75 16 l-50 0 0
54 c0 34 5 56 13 59 6 3 49 6 93 6 59 1 85 -3 93 -13z"/>
<path d="M120 305 c0 -22 4 -25 35 -25 26 0 33 3 29 15 -4 10 0 15 10 15 9 0
19 -7 22 -15 4 -8 17 -15 30 -15 19 0 24 5 24 25 0 24 -2 25 -75 25 -73 0 -75
-1 -75 -25z"/>
<path d="M558 389 c-14 -8 -18 -24 -18 -78 0 -89 15 -101 128 -101 65 0 84 4
106 21 23 18 26 28 26 78 0 44 -4 62 -19 75 -31 29 -71 -2 -71 -55 0 -16 -7
-19 -45 -19 -43 0 -45 1 -45 28 0 16 -8 36 -18 45 -21 20 -21 20 -44 6z m34
-67 l-4 -42 76 0 76 0 0 46 c0 38 3 45 18 42 9 -2 16 -7 15 -11 -2 -4 -3 -30
-3 -57 l0 -51 -102 3 -103 3 -3 58 c-3 52 -1 58 15 55 14 -3 17 -11 15 -46z"/>
<path d="M1036 379 c-22 -17 -26 -28 -26 -73 0 -50 20 -96 41 -96 5 0 19 11
31 25 16 19 31 25 61 25 30 0 44 -6 59 -25 23 -29 31 -31 52 -9 11 11 16 35
16 79 0 84 -14 95 -126 95 -67 0 -86 -4 -108 -21z m203 -23 c6 -4 11 -29 11
-57 0 -42 -3 -49 -19 -49 -14 0 -18 5 -14 20 5 19 0 20 -71 20 -69 0 -76 -2
-76 -20 0 -12 -7 -20 -17 -20 -15 0 -17 8 -14 52 2 29 7 55 11 58 12 7 176 4
189 -4z"/>
<path d="M1070 328 c0 -5 35 -8 77 -8 42 0 74 3 71 6 -9 8 -148 10 -148 2z"/>
<path d="M1507 382 c-12 -13 -17 -37 -17 -79 0 -85 11 -93 132 -93 101 0 128
12 128 56 0 35 -21 44 -97 44 -65 0 -73 2 -73 19 0 19 -36 71 -49 71 -4 0 -15
-8 -24 -18z m41 -57 l-3 -45 92 0 c76 0 93 -3 93 -15 0 -12 -19 -15 -110 -15
l-110 0 0 60 c0 54 2 60 21 60 19 0 21 -5 17 -45z"/>
<path d="M1977 382 c-25 -27 -23 -133 1 -155 23 -21 27 -21 46 -1 12 11 16 35
16 84 0 58 -3 71 -19 80 -25 13 -25 13 -44 -8z m43 -72 c0 -50 -3 -60 -17 -60
-15 0 -18 9 -16 57 1 32 2 59 2 61 1 1 8 2 16 2 12 0 15 -13 15 -60z"/>
<path d="M2276 388 c-19 -11 -21 -59 -4 -76 7 -7 25 -12 40 -12 22 0 28 -5 28
-22 1 -47 49 -75 78 -46 7 7 12 25 12 40 0 25 4 28 33 28 38 0 57 15 57 45 0
44 -29 56 -133 54 -52 -1 -102 -6 -111 -11z m224 -40 c0 -15 -9 -18 -49 -18
l-49 0 5 -40 c5 -36 3 -40 -16 -40 -18 0 -21 6 -21 40 l0 40 -45 0 c-36 0 -45
3 -45 18 0 15 12 17 110 17 98 0 110 -2 110 -17z"/>
<path d="M2747 382 c-35 -39 -8 -122 40 -122 14 0 34 -11 47 -26 19 -23 26
-25 43 -16 11 6 23 18 27 27 3 8 17 15 30 15 56 0 87 79 46 120 -26 26 -32 25
-60 -5 -16 -17 -34 -25 -58 -25 -24 0 -42 8 -58 25 -28 30 -36 31 -57 7z m43
-37 c0 -24 2 -25 75 -25 73 0 75 1 75 25 0 16 6 25 16 25 12 0 14 -9 12 -37
-3 -37 -4 -38 -45 -41 -35 -3 -43 -7 -43 -23 0 -10 -7 -19 -15 -19 -8 0 -15 9
-15 19 0 16 -8 20 -42 23 -42 3 -43 4 -46 41 -2 28 0 37 12 37 10 0 16 -9 16
-25z"/>
<path d="M2362 178 c-17 -17 -16 -123 2 -137 22 -18 231 25 265 55 23 20 -1
39 -66 53 -32 7 -78 19 -102 27 -55 17 -83 18 -99 2z m148 -37 c89 -21 118
-30 100 -35 -14 -3 -65 -15 -115 -26 -49 -11 -98 -23 -107 -26 -16 -5 -18 2
-18 55 0 34 3 61 8 61 4 -1 63 -14 132 -29z"/>
<path d="M555 165 c-5 -1 -37 -9 -70 -16 -90 -20 -130 -35 -133 -52 -4 -19 38
-43 93 -52 22 -4 47 -11 55 -15 8 -4 36 -11 63 -14 43 -6 48 -5 58 18 11 24
11 24 31 4 17 -17 30 -20 90 -16 80 4 98 18 98 78 0 55 -23 70 -105 70 -47 0
-74 -5 -85 -15 -15 -14 -18 -14 -30 0 -11 14 -39 18 -65 10z m45 -74 l0 -59
-92 23 c-51 13 -106 26 -123 30 -26 7 -15 11 80 35 61 15 116 28 123 29 8 1
12 -17 12 -58z m210 9 l0 -40 -75 0 -75 0 0 40 0 40 75 0 75 0 0 -40z"/>
<path d="M680 100 c0 -18 7 -20 55 -20 48 0 55 2 55 20 0 18 -7 20 -55 20 -48
0 -55 -2 -55 -20z"/>
<path d="M882 158 c-19 -19 -15 -102 6 -121 16 -15 21 -15 38 -2 24 18 64 18
88 0 17 -13 22 -13 38 2 26 23 25 108 -1 123 -27 14 -154 13 -169 -2z m164
-64 c0 -41 -17 -52 -30 -18 -8 20 -96 20 -96 -1 0 -8 -6 -15 -13 -15 -8 0 -12
14 -12 40 l0 41 75 -3 75 -3 1 -41z"/>
<path d="M948 113 c18 -2 45 -2 60 0 15 2 0 4 -33 4 -33 0 -45 -2 -27 -4z"/>
<path d="M1116 151 c-28 -31 -16 -62 38 -98 49 -32 50 -32 80 -15 75 41 95 82
58 115 -23 21 -36 21 -52 2 -7 -8 -23 -15 -35 -15 -12 0 -28 7 -35 15 -17 20
-33 19 -54 -4z m38 -26 c-5 -12 4 -15 50 -15 43 0 56 3 56 15 0 8 5 15 10 15
6 0 10 -11 10 -25 0 -21 -5 -25 -30 -25 -20 0 -30 -5 -30 -15 0 -8 -7 -15 -15
-15 -8 0 -15 7 -15 15 0 10 -10 15 -30 15 -25 0 -30 4 -30 25 0 15 6 25 15 25
9 0 12 -6 9 -15z"/>
<path d="M1352 158 c-7 -7 -12 -33 -12 -59 0 -39 4 -49 25 -63 36 -24 151 -20
176 5 23 23 25 86 5 114 -12 17 -17 18 -39 6 -20 -10 -28 -11 -45 0 -17 10
-23 10 -37 -1 -12 -10 -19 -10 -27 -2 -15 15 -31 15 -46 0z m38 -48 c0 -26 4
-30 26 -30 23 0 26 3 22 30 -3 20 0 30 9 30 8 0 13 -12 13 -30 0 -25 4 -30 25
-30 21 0 25 5 25 30 0 18 5 30 13 30 9 0 11 -12 9 -40 l-4 -41 -82 3 -81 3 -3
38 c-2 28 0 37 12 37 11 0 16 -9 16 -30z"/>
<path d="M1607 152 c-24 -27 -22 -94 3 -117 19 -17 21 -17 38 -2 23 21 75 22
92 2 9 -11 17 -12 31 -4 15 8 19 21 19 62 0 29 -5 58 -12 65 -7 7 -41 12 -83
12 -57 0 -75 -4 -88 -18z m161 -59 c3 -35 0 -42 -12 -37 -8 3 -12 12 -9 20 4
11 -7 14 -51 14 -49 0 -56 -2 -56 -20 0 -11 -4 -20 -10 -20 -5 0 -10 20 -10
45 l0 46 73 -3 72 -3 3 -42z"/>
<path d="M1668 113 c18 -2 45 -2 60 0 15 2 0 4 -33 4 -33 0 -45 -2 -27 -4z"/>
<path d="M1842 158 c-6 -6 -12 -36 -12 -65 0 -64 12 -73 103 -73 49 0 68 4 80
18 35 38 7 72 -58 72 -38 0 -46 4 -57 27 -15 31 -37 40 -56 21z m35 -48 l-6
-30 69 0 c40 0 70 -4 70 -10 0 -6 -33 -10 -80 -10 l-80 0 0 40 c0 30 4 40 16
40 13 0 15 -7 11 -30z"/>
<path d="M2072 158 c-19 -19 -15 -102 6 -121 25 -23 144 -24 166 -1 39 38 11
74 -56 74 -34 0 -48 4 -48 13 0 16 -31 47 -46 47 -6 0 -15 -5 -22 -12z m38
-48 l0 -30 65 0 c37 0 65 -4 65 -10 0 -6 -33 -10 -80 -10 l-80 0 0 40 c0 29 4
40 15 40 10 0 15 -10 15 -30z"/>
</g>
</svg>
